<svg width="23" height="32" viewBox="0 0 23 32" fill="none" xmlns="http://www.w3.org/2000/svg">
<g clip-path="url(#clip0_1322_60956)">
<rect width="22.2457" height="32" rx="8.1286" fill="#FAFAFB"/>
<g clip-path="url(#clip1_1322_60956)">
<path d="M7.99296 11.1363C8.56887 11.1363 9.03573 10.6695 9.03573 10.0935C9.03573 9.51764 8.56887 9.05078 7.99296 9.05078C7.41706 9.05078 6.9502 9.51764 6.9502 10.0935C6.9502 10.6695 7.41706 11.1363 7.99296 11.1363Z" fill="#A2A2A8"/>
<path d="M14.2508 11.1363C14.8267 11.1363 15.2935 10.6695 15.2935 10.0935C15.2935 9.51764 14.8267 9.05078 14.2508 9.05078C13.6749 9.05078 13.208 9.51764 13.208 10.0935C13.208 10.6695 13.6749 11.1363 14.2508 11.1363Z" fill="#A2A2A8"/>
<path d="M7.99296 17.0426C8.56887 17.0426 9.03573 16.5757 9.03573 15.9998C9.03573 15.4239 8.56887 14.957 7.99296 14.957C7.41706 14.957 6.9502 15.4239 6.9502 15.9998C6.9502 16.5757 7.41706 17.0426 7.99296 17.0426Z" fill="#A2A2A8"/>
<path d="M14.2508 17.0426C14.8267 17.0426 15.2935 16.5757 15.2935 15.9998C15.2935 15.4239 14.8267 14.957 14.2508 14.957C13.6749 14.957 13.208 15.4239 13.208 15.9998C13.208 16.5757 13.6749 17.0426 14.2508 17.0426Z" fill="#A2A2A8"/>
<path d="M7.99296 22.9527C8.56887 22.9527 9.03573 22.4859 9.03573 21.91C9.03573 21.334 8.56887 20.8672 7.99296 20.8672C7.41706 20.8672 6.9502 21.334 6.9502 21.91C6.9502 22.4859 7.41706 22.9527 7.99296 22.9527Z" fill="#A2A2A8"/>
<path d="M14.2508 22.9527C14.8267 22.9527 15.2935 22.4859 15.2935 21.91C15.2935 21.334 14.8267 20.8672 14.2508 20.8672C13.6749 20.8672 13.208 21.334 13.208 21.91C13.208 22.4859 13.6749 22.9527 14.2508 22.9527Z" fill="#A2A2A8"/>
</g>
</g>
<rect x="0.666667" y="0.666667" width="20.9123" height="30.6667" rx="7.46193" stroke="#E2E2EA" stroke-width="1.33333"/>
<defs>
<clipPath id="clip0_1322_60956">
<rect width="22.2457" height="32" rx="8.1286" fill="white"/>
</clipPath>
<clipPath id="clip1_1322_60956">
<rect width="22.2457" height="22.2457" fill="white" transform="translate(0 4.87891)"/>
</clipPath>
</defs>
</svg>
